<mxfile host="app.diagrams.net" modified="2023-09-18T21:38:43.269Z" agent="Mozilla/5.0 (Macintosh; Intel Mac OS X 10_15_7) AppleWebKit/537.36 (KHTML, like Gecko) Chrome/116.0.0.0 Safari/537.36" version="21.7.2" etag="NGj-qJ58QD2H_7HfO9wU" type="github">
  <diagram name="第 1 页" id="wW54SOhl_vqipGgVwS6m">
    <mxGraphModel>
      <root>
        <mxCell id="0" />
        <mxCell id="1" parent="0" />
      </root>
    </mxGraphModel>
  </diagram>
</mxfile>
